# xmcd
#
# Track frame offsets:
#	150
#	18845
#	38825
#	60403
#	78309
#	97699
#	118761
#	142089
#	160853
#	177899
#
# Disc length: 2665 seconds
#
# Revision: 1
# Processed by: cddbd v1.5.2PL0 Copyright (c) Steve Scherf et al.
# Submitted via: EZCDAudioConverter 8.1.1.1
#
DISCID=720a670a
DTITLE=Will Downing - The Promise
DYEAR=2018
DGENRE=R&B
TTITLE0=Take It To The Cross
TTITLE1=Look At Yourself (In The Miirror)
TTITLE2=I Hear A Voice
TTITLE3=You Blessed My Life
TTITLE4=He Will Be There
TTITLE5=What Would I Do
TTITLE6=God Is So Amazing
TTITLE7=God Will Show You The Way
TTITLE8=Shout (A Celebration Of Life)
TTITLE9=Changed (Featuring Regina Bell)
EXTD=
EXTT0=
EXTT1=
EXTT2=
EXTT3=
EXTT4=
EXTT5=
EXTT6=
EXTT7=
EXTT8=
EXTT9=
PLAYORDER=
